# xmcd
#
# Track frame offsets: 
#        150
#        2785
#        18436
#        35073
#        49947
#        66732
#        84142
#        100390
#        114881
#        131868
#        146161
#        160826
#        174591
#        179866
#        197879
#        214631
#
# Disc length: 3050 seconds
#
# Revision: 0
# Processed by: cddbd v1.5.2PL0 Copyright (c) Steve Scherf et al.
# Submitted via: ExactAudioCopy v1.3
#
DISCID=ee0be810
DTITLE=費玉清 - 甲人做伙
DYEAR=2019
DGENRE=國語歌曲
TTITLE0=開場
TTITLE1=甲人做伙
TTITLE2=人生似浮雲
TTITLE3=為何你愛著別人
TTITLE4=你要去叨位
TTITLE5=今夜擱再想你
TTITLE6=傷心路
TTITLE7=不是閃避你
TTITLE8=誰沒苦情
TTITLE9=秋風無了時
TTITLE10=戀愛夢
TTITLE11=懷念的人
TTITLE12=閩南語歌曲Ending
TTITLE13=夢裡山河
TTITLE14=大野英豪
TTITLE15=好兒郎
EXTD=
EXTT0=
EXTT1=
EXTT2=
EXTT3=
EXTT4=
EXTT5=
EXTT6=
EXTT7=
EXTT8=
EXTT9=
EXTT10=
EXTT11=
EXTT12=
EXTT13=
EXTT14=
EXTT15=
PLAYORDER=
